<?xml version="1.0" encoding="UTF-8"?>
<!-- Generated by Pixelmator Pro 3.4.2 -->
<svg width="256" height="256" viewBox="0 0 256 256" xmlns="http://www.w3.org/2000/svg">
    <path id="Path" fill="#aec8d5" fill-rule="evenodd" stroke="none" d="M 118 145 C 118 145 127.878754 142.633713 137 137 C 144.769958 132.200912 160 118 160 118 C 160 118 171.395508 118.047485 176 117 C 211.830078 108.848938 248.468323 89.173065 245 59 C 241.443848 28.062744 189.865005 2.361023 137 10 C 114.896332 13.19397 68.811882 21.076233 63 61 C 57.198997 100.849045 108.038284 109.559372 123 115 C 131.77803 118.192017 134 118 134 118 C 134 118 131.341248 126.208496 128 132 C 123.91626 139.078491 118 145 118 145 Z"/>
    <g id="F">
        <linearGradient id="linearGradient1" x1="58.710097" y1="223.076638" x2="28.303547" y2="173.064215" gradientUnits="userSpaceOnUse">
            <stop offset="0" stop-color="#2e5d7c" stop-opacity="1"/>
            <stop offset="1" stop-color="#6c9ab2" stop-opacity="1"/>
        </linearGradient>
        <path id="path1" fill="url(#linearGradient1)" fill-rule="evenodd" stroke="#000000" stroke-width="4.842827" d="M 132.291016 90.925003 C 119.277855 54.94841 70.117378 63.991104 38.89362 88.849503 C -7.90181 126.105103 11.805999 177.74176 25.748804 200.926361 C 40.316895 225.150757 60.667637 237.498657 74.868912 225.140503 C 83.565414 217.572693 86.988304 209.188629 77.636238 194.008041 C 74.24662 188.505951 76.440857 170.044678 85.938225 165.642914 C 94.554085 161.649704 94.954681 149.375336 83.170898 149.730774 C 75.254646 149.969543 53.780266 148.253952 61.032261 144.887939 C 67.561005 141.857635 143.080368 120.753647 132.291016 90.925003 Z"/>
        <path id="Ellipse" fill="#ffffff" fill-rule="evenodd" stroke="#000000" stroke-width="2.76733" d="M 71.409744 90.23317 C 71.409744 88.704819 70.325645 87.465851 68.988335 87.465851 C 67.651024 87.465851 66.566917 88.704819 66.566917 90.23317 C 66.566917 91.76152 67.651024 93.000504 68.988335 93.000504 C 70.325645 93.000504 71.409744 91.76152 71.409744 90.23317 Z"/>
        <path id="Ellipse-copy-2" fill="#ffffff" fill-rule="evenodd" stroke="#000000" stroke-width="2.76733" d="M 57.573097 96.113754 C 57.573097 94.394348 56.488995 93.000504 55.151684 93.000504 C 53.814373 93.000504 52.73027 94.394348 52.73027 96.113754 C 52.73027 97.833145 53.814373 99.22699 55.151684 99.22699 C 56.488995 99.22699 57.573097 97.833145 57.573097 96.113754 Z"/>
    </g>
</svg>
